<svg width="22" height="22" viewBox="0 0 22 22" fill="none" xmlns="http://www.w3.org/2000/svg">
<path d="M11.0002 10.9666C9.5335 10.9666 8.3335 10.4999 7.40016 9.56655C6.46683 8.63322 6.00016 7.43322 6.00016 5.96655C6.00016 4.49989 6.46683 3.29989 7.40016 2.36655C8.3335 1.43322 9.5335 0.966553 11.0002 0.966553C12.4668 0.966553 13.6668 1.43322 14.6002 2.36655C15.5335 3.29989 16.0002 4.49989 16.0002 5.96655C16.0002 7.43322 15.5335 8.63322 14.6002 9.56655C13.6668 10.4999 12.4668 10.9666 11.0002 10.9666ZM0.333496 21.6666V18.5332C0.333496 17.6888 0.544607 16.9666 0.966829 16.3666C1.38905 15.7666 1.9335 15.311 2.60016 14.9999C4.08905 14.3332 5.51683 13.8332 6.8835 13.4999C8.25016 13.1666 9.62239 12.9999 11.0002 12.9999C12.3779 12.9999 13.7446 13.1721 15.1002 13.5166C16.4557 13.861 17.8779 14.3554 19.3668 14.9999C20.0557 15.311 20.6113 15.7666 21.0335 16.3666C21.4557 16.9666 21.6668 17.6888 21.6668 18.5332V21.6666H0.333496ZM2.3335 19.6666H19.6668V18.5332C19.6668 18.1777 19.5613 17.8388 19.3502 17.5166C19.1391 17.1943 18.8779 16.9554 18.5668 16.7999C17.1446 16.111 15.8446 15.6388 14.6668 15.3832C13.4891 15.1277 12.2668 14.9999 11.0002 14.9999C9.7335 14.9999 8.50016 15.1277 7.30016 15.3832C6.10016 15.6388 4.80016 16.111 3.40016 16.7999C3.08905 16.9554 2.8335 17.1943 2.6335 17.5166C2.4335 17.8388 2.3335 18.1777 2.3335 18.5332V19.6666ZM11.0002 8.96655C11.8668 8.96655 12.5835 8.68322 13.1502 8.11655C13.7168 7.54989 14.0002 6.83322 14.0002 5.96655C14.0002 5.09989 13.7168 4.38322 13.1502 3.81655C12.5835 3.24989 11.8668 2.96655 11.0002 2.96655C10.1335 2.96655 9.41683 3.24989 8.85016 3.81655C8.2835 4.38322 8.00016 5.09989 8.00016 5.96655C8.00016 6.83322 8.2835 7.54989 8.85016 8.11655C9.41683 8.68322 10.1335 8.96655 11.0002 8.96655Z" fill="#29B297"/>
</svg>
