<svg xmlns="http://www.w3.org/2000/svg" xmlns:xlink="http://www.w3.org/1999/xlink">
  <symbol id="filter-icon-1" viewBox="0 0 24 24" fill="none" xmlns="http://www.w3.org/2000/svg">
    <path
      d="M12.3 24V22H22V2H12.3V0H22C22.5333 0 23 0.2 23.4 0.6C23.8 1 24 1.46667 24 2V22C24 22.5333 23.8 23 23.4 23.4C23 23.8 22.5333 24 22 24H12.3ZM9.7 17.8333L8.26667 16.4L11.6667 13H0V11H11.6L8.2 7.6L9.63333 6.16667L15.5 12.0333L9.7 17.8333Z"
      fill="#29B297" />
  </symbol>
  <symbol id="filter-icon-2" viewBox="0 0 24 24" fill="none" xmlns="http://www.w3.org/2000/svg">
    <path
      d="M2 24C1.46667 24 1 23.8 0.6 23.4C0.2 23 0 22.5333 0 22V2C0 1.46667 0.2 1 0.6 0.6C1 0.2 1.46667 0 2 0H11.7V2H2V22H11.7V24H2ZM18.2 17.8333L16.7667 16.4L20.1667 13H8.5V11H20.1L16.7 7.6L18.1333 6.16667L24 12.0333L18.2 17.8333Z"
      fill="#29B297" />
  </symbol>
  <symbol id="filter-icon-3" viewBox="0 0 22 22" fill="none" xmlns="http://www.w3.org/2000/svg">
    <path
      d="M11 10.9667C9.53337 10.9667 8.33337 10.5 7.40004 9.56667C6.46671 8.63333 6.00004 7.43333 6.00004 5.96667C6.00004 4.5 6.46671 3.3 7.40004 2.36667C8.33337 1.43333 9.53337 0.966667 11 0.966667C12.4667 0.966667 13.6667 1.43333 14.6 2.36667C15.5334 3.3 16 4.5 16 5.96667C16 7.43333 15.5334 8.63333 14.6 9.56667C13.6667 10.5 12.4667 10.9667 11 10.9667ZM0.333374 21.6667V18.5333C0.333374 17.6889 0.544485 16.9667 0.966707 16.3667C1.38893 15.7667 1.93337 15.3111 2.60004 15C4.08893 14.3333 5.51671 13.8333 6.88337 13.5C8.25004 13.1667 9.62226 13 11 13C12.3778 13 13.7445 13.1722 15.1 13.5167C16.4556 13.8611 17.8778 14.3556 19.3667 15C20.0556 15.3111 20.6112 15.7667 21.0334 16.3667C21.4556 16.9667 21.6667 17.6889 21.6667 18.5333V21.6667H0.333374ZM2.33337 19.6667H19.6667V18.5333C19.6667 18.1778 19.5612 17.8389 19.35 17.5167C19.1389 17.1944 18.8778 16.9556 18.5667 16.8C17.1445 16.1111 15.8445 15.6389 14.6667 15.3833C13.4889 15.1278 12.2667 15 11 15C9.73337 15 8.50004 15.1278 7.30004 15.3833C6.10004 15.6389 4.80004 16.1111 3.40004 16.8C3.08893 16.9556 2.83337 17.1944 2.63337 17.5167C2.43337 17.8389 2.33337 18.1778 2.33337 18.5333V19.6667ZM11 8.96667C11.8667 8.96667 12.5834 8.68333 13.15 8.11667C13.7167 7.55 14 6.83333 14 5.96667C14 5.1 13.7167 4.38333 13.15 3.81667C12.5834 3.25 11.8667 2.96667 11 2.96667C10.1334 2.96667 9.41671 3.25 8.85004 3.81667C8.28337 4.38333 8.00004 5.1 8.00004 5.96667C8.00004 6.83333 8.28337 7.55 8.85004 8.11667C9.41671 8.68333 10.1334 8.96667 11 8.96667Z"
      fill="#29B297" />
  </symbol>
  <symbol id="filter-icon-search" viewBox="0 0 22 22" xmlns="http://www.w3.org/2000/svg">
    <path
      d="M16.8313 15.417L21.1143 19.699L19.6993 21.114L15.4173 16.831C13.824 18.1083 11.8423 18.803 9.80029 18.8C4.83229 18.8 0.800293 14.768 0.800293 9.80005C0.800293 4.83205 4.83229 0.800049 9.80029 0.800049C14.7683 0.800049 18.8003 4.83205 18.8003 9.80005C18.8032 11.842 18.1085 13.8238 16.8313 15.417ZM14.8253 14.675C16.0944 13.3699 16.8032 11.6205 16.8003 9.80005C16.8003 5.93205 13.6673 2.80005 9.80029 2.80005C5.93229 2.80005 2.80029 5.93205 2.80029 9.80005C2.80029 13.667 5.93229 16.8 9.80029 16.8C11.6207 16.8029 13.3702 16.0942 14.6753 14.825L14.8253 14.675Z" />
  </symbol>
  <symbol id="filter-error" viewBox="0 0 154 154" fill="none" xmlns="http://www.w3.org/2000/svg">
    <rect x="0.5" y="0.5" width="153" height="153" rx="76.5" fill="white" stroke="#4A505A" />
    <line x1="105.922" y1="49.3536" x2="49.3536" y2="105.922" stroke="#4A505A" />
    <line x1="49.3538" y1="48.6464" x2="105.922" y2="105.215" stroke="#4A505A" />
  </symbol>
  <symbol id="arrow" viewBox="0 0 7 5" xmlns="http://www.w3.org/2000/svg">
    <path
      d="M3.5001 3.13486L6.18135 0.453613L6.94727 1.21953L3.5001 4.6667L0.0529322 1.21953L0.818849 0.453613L3.5001 3.13486Z" />
  </symbol>
</svg>